<?xml version="1.0" encoding="utf-8"?>
<!-- Generator: Adobe Illustrator 25.2.1, SVG Export Plug-In . SVG Version: 6.00 Build 0)  -->
<svg version="1.1" id="Layer_1" xmlns="http://www.w3.org/2000/svg" xmlns:xlink="http://www.w3.org/1999/xlink" x="0px" y="0px"
	 viewBox="0 0 106 32" enable-background="new 0 0 106 32" xml:space="preserve">
<path id="amazon" fill-rule="evenodd" clip-rule="evenodd" fill="#FAD2CA" d="M15.5,15.5c-0.1-0.1-0.1-0.2-0.2-0.3
	c-0.5-0.7-1-1.4-1-2.8V7.3c0-0.2,0-0.3,0-0.5c0-2,0-3.8-1.4-5.1C11.6,0.4,9.5,0,7.9,0C4.8,0,1.3,1.2,0.5,5C0.5,5.4,0.8,5.7,1,5.7
	l3.2,0.3c0.3,0,0.5-0.3,0.6-0.6c0.3-1.3,1.4-2,2.6-2c0.7,0,1.4,0.2,1.8,0.9c0.4,0.6,0.4,1.4,0.4,2.1c0,0.1,0,0.2,0,0.2v0.4
	c-0.3,0-0.6,0.1-1,0.1C7,7.4,5,7.6,3.5,8.3C1.4,9.2,0,11,0,13.7c0,3.4,2.2,5.1,4.9,5.1c2.3,0,3.6-0.5,5.4-2.4
	c0.1,0.1,0.2,0.3,0.3,0.4c0.4,0.6,0.7,1,1.6,1.8c0.2,0.1,0.6,0.1,0.8-0.1l0,0c0.7-0.6,1.8-1.6,2.5-2.2
	C15.8,16.1,15.7,15.8,15.5,15.5z M9.7,10.5c0,0.1,0,0.1,0,0.2c0,1.2,0,2.2-0.6,3.3c-0.5,0.9-1.3,1.5-2.3,1.5c-1.3,0-2-1-2-2.4
	c0-2.8,2.5-3.3,4.9-3.3V10.5z M58.5,15.5c-0.1-0.1-0.1-0.2-0.2-0.3c-0.5-0.7-1-1.4-1-2.8V7.3c0-0.2,0-0.3,0-0.5c0-2,0-3.8-1.4-5.1
	C54.6,0.4,52.5,0,50.9,0c-3.1,0-6.6,1.2-7.3,5c-0.1,0.4,0.2,0.6,0.5,0.7l3.2,0.3c0.3,0,0.5-0.3,0.6-0.6c0.3-1.3,1.4-2,2.6-2
	c0.7,0,1.4,0.2,1.8,0.9c0.4,0.6,0.4,1.4,0.4,2.1v0c0,0.1,0,0.2,0,0.2v0.4c-0.3,0-0.6,0.1-1,0.1c-1.7,0.2-3.7,0.4-5.2,1
	C44.4,9.2,43,11,43,13.7c0,3.4,2.1,5.1,4.9,5.1c2.3,0,3.6-0.5,5.4-2.4c0.1,0.1,0.2,0.2,0.2,0.4c0.4,0.6,0.7,1.1,1.6,1.8
	c0.2,0.1,0.6,0.1,0.8-0.1l0,0c0.7-0.6,1.8-1.6,2.5-2.2C58.8,16.1,58.7,15.8,58.5,15.5z M52.7,10.5v0.2c0,1.2,0,2.2-0.6,3.3
	c-0.5,0.9-1.4,1.5-2.3,1.5c-1.3,0-2-1-2-2.4c0-2.8,2.5-3.3,4.9-3.3V10.5z M18.7,18.5h3.3c0.4,0,0.6-0.3,0.6-0.6V9V8.8
	c0-1.9,0-4.4,2.3-4.4c2.1,0,2.1,2.2,2,4.1c0,0.2,0,0.4,0,0.6l0,8.9c0,0.3,0.3,0.6,0.6,0.6h3.3c0.4,0,0.6-0.3,0.6-0.6V9
	c0-0.1,0-0.2,0-0.2l0,0l0,0v0c0-0.9,0-2.2,0.3-3c0.3-0.9,1.2-1.4,2-1.4c1,0,1.7,0.3,1.9,1.5c0.1,0.5,0.1,1.8,0.1,2.6l0,0l0,0l0,0v0
	l0,0c0,0.2,0,0.4,0,0.5v8.9c0,0.3,0.3,0.6,0.6,0.6h3.3c0.4,0,0.6-0.3,0.6-0.6l0-10.6c0-0.3,0-0.5,0-0.8l0,0l0,0l0,0l0,0
	c0-1.6,0.1-3.3-0.8-4.5c-0.9-1.3-2.4-1.8-3.8-1.8c-1.9,0-3.7,1-4.5,3.1c-0.9-2.1-2.2-3.1-4.3-3.1c-2,0-3.5,1-4.3,3.1h-0.1V1.1
	c0-0.3-0.3-0.5-0.6-0.6h-3.1c-0.4,0-0.6,0.3-0.6,0.6V18C18.1,18.3,18.3,18.5,18.7,18.5z M61.3,3.5V1.1c0-0.4,0.3-0.6,0.6-0.6h10.8
	c0.3,0,0.6,0.2,0.6,0.6v2.1c0,0.3-0.3,0.8-0.8,1.5l-5.6,8c2.1-0.1,4.3,0.3,6.2,1.3c0.4,0.2,0.5,0.6,0.6,0.9v2.6
	c0,0.4-0.4,0.8-0.8,0.5c-3.3-1.7-7.7-1.9-11.4,0c-0.4,0.2-0.8-0.2-0.8-0.6v-2.4c0-0.4,0-1.1,0.4-1.7l6.5-9.3h-5.6
	C61.5,4.1,61.3,3.9,61.3,3.5z M61.2,21.8c2-0.2,6.4-0.8,7.2,0.2c0.8,1-0.9,5.2-1.6,7l0,0c-0.2,0.6,0.3,0.8,0.8,0.4
	c3.3-2.8,4.2-8.6,3.5-9.4c-0.7-0.8-6.5-1.5-10,0.9C60.4,21.4,60.5,21.9,61.2,21.8L61.2,21.8z M43,32c7.7,0,16.6-2.4,22.8-7
	c1-0.8,0.1-1.9-0.9-1.4c-6.9,2.9-14.4,4.3-21.2,4.3c-10.1,0-19.9-2.8-27.8-7.4c-0.7-0.4-1.2,0.3-0.6,0.8C22.5,28,32.2,32,43,32z
	 M82.6,0.2c-4.7,0-7.4,4.1-7.4,9.3c0,5.2,2.6,9.4,7.4,9.4c4.6,0,7.5-4.1,7.5-9.2C90.1,4.3,87.4,0.2,82.6,0.2z M82.6,15.4
	C80,15.4,80,11.1,80,9V9c0-2.1,0.2-5.4,2.6-5.4c1,0,1.8,0.5,2.1,1.6c0.4,1.3,0.5,3.1,0.5,4.5C85.2,11.9,85.1,15.4,82.6,15.4z
	 M93.1,18.5h3.3c0.4,0,0.6-0.3,0.6-0.6V8.9c0-1.1,0.1-2.2,0.5-3.2c0.4-0.8,1.1-1.3,1.9-1.3c2.1,0,2.1,2.3,2.1,4.1c0,0.2,0,0.3,0,0.4
	V18c0,0.3,0.3,0.5,0.6,0.5h3.3c0.3,0,0.6-0.2,0.6-0.5V7.4c0-1.6,0-3.9-0.9-5.3c-0.9-1.5-2.4-2-3.8-2c-2.3,0-3.6,1.1-4.5,3.4h-0.1V1
	c-0.1-0.3-0.3-0.5-0.6-0.5h-3c-0.3,0-0.6,0.2-0.6,0.5l0,16.9C92.5,18.3,92.8,18.5,93.1,18.5z"/>
</svg>
