<?xml version="1.0" encoding="utf-8"?>
<!-- Generator: Adobe Illustrator 25.2.1, SVG Export Plug-In . SVG Version: 6.00 Build 0)  -->
<svg version="1.1" id="Layer_1" xmlns="http://www.w3.org/2000/svg" xmlns:xlink="http://www.w3.org/1999/xlink" x="0px" y="0px"
	 viewBox="0 0 110 36" enable-background="new 0 0 110 36" xml:space="preserve">
<path id="google" fill="#FAD2CA" d="M102.3,24.5c-2,0-3.4-0.9-4.4-2.7l12-4.9l-0.4-1c-0.7-2-3-5.7-7.7-5.7c-4.6,0-8.5,3.6-8.5,8.9
	c0,5,3.8,8.9,8.9,8.9c4.1,0,6.5-2.5,7.5-4l-3.1-2C105.8,23.5,104.4,24.5,102.3,24.5z M102,13.5c1.6,0,2.9,0.8,3.3,1.9l-8,3.3
	C97.3,15.3,100,13.5,102,13.5z M87.7,1h3.9v26.2h-3.9V1z M81.6,10.8v1.3h-0.1c-0.9-1-2.6-2-4.7-2c-4.5,0-8.6,3.9-8.6,9
	c0,5,4.1,8.9,8.6,8.9c2.1,0,3.8-1,4.7-2h0.1v1.3c0,3.4-1.8,5.3-4.8,5.3c-2.4,0-3.9-1.7-4.5-3.2l-3.4,1.4c1,2.4,3.6,5.3,7.9,5.3
	c4.6,0,8.5-2.7,8.5-9.3V10.8H81.6z M77,24.4c-2.7,0-5-2.3-5-5.4c0-3.2,2.3-5.5,5-5.5c2.7,0,4.8,2.3,4.8,5.5
	C81.8,22.2,79.7,24.5,77,24.4z M37.9,10.1c-4.9,0-9,3.8-9,8.9c0,5.1,4,8.9,9,8.9c4.9,0,9-3.8,9-8.9C46.9,13.8,42.8,10.1,37.9,10.1z
	 M37.9,24.4c-2.7,0-5-2.2-5-5.4c0-3.2,2.3-5.4,5-5.4c2.7,0,5,2.2,5,5.4C43,22.2,40.6,24.4,37.9,24.4z M57.5,10.1c-4.9,0-9,3.8-9,8.9
	c0,5.1,4,8.9,9,8.9c4.9,0,9-3.8,9-8.9C66.5,13.9,62.4,10.1,57.5,10.1z M57.5,24.5c-2.7,0-5-2.2-5-5.4c0-3.2,2.3-5.4,5-5.4
	c2.7,0,5,2.2,5,5.4C62.5,22.2,60.2,24.5,57.5,24.5z M14.2,24.1c-5.6,0-10-4.5-10-10.1s4.4-10.1,10-10.1c3,0,5.2,1.2,6.9,2.7l2.7-2.7
	C21.5,1.7,18.4,0,14.2,0C6.5,0,0,6.3,0,13.9s6.5,13.9,14.2,13.9c4.2,0,7.3-1.4,9.8-3.9c2.5-2.5,3.3-6,3.3-8.9c0-0.9-0.1-1.8-0.2-2.5
	H14.2v3.7h9.1c-0.3,2.3-1,3.9-2.1,5C19.9,22.6,17.8,24.1,14.2,24.1z"/>
</svg>
