<?xml version="1.0" encoding="utf-8"?>
<!-- Generator: Adobe Illustrator 25.2.1, SVG Export Plug-In . SVG Version: 6.00 Build 0)  -->
<svg version="1.1" id="Layer_1" xmlns="http://www.w3.org/2000/svg" xmlns:xlink="http://www.w3.org/1999/xlink" x="0px" y="0px"
	 viewBox="0 0 272 252" enable-background="new 0 0 272 252" xml:space="preserve">
<g>
	<path fill="#407BFF" d="M268.9,109.5H9.7c-0.8,0-1.6-0.3-2.2-0.9c-0.6-0.6-0.9-1.4-0.9-2.2c0-0.8,0.3-1.6,0.9-2.2
		c0.6-0.6,1.4-0.9,2.2-0.9h259.1c0.8,0,1.6,0.3,2.2,0.9c0.6,0.6,0.9,1.4,0.9,2.2c0,0.8-0.3,1.6-0.9,2.2
		C270.5,109.2,269.7,109.5,268.9,109.5z"/>
	<path opacity="0.3" fill="#263238" enable-background="new    " d="M268.9,109.5h-60.7c-0.8,0-1.6-0.3-2.2-0.9
		c-0.6-0.6-0.9-1.4-0.9-2.2c0-0.8,0.3-1.6,0.9-2.2c0.6-0.6,1.4-0.9,2.2-0.9h60.7c0.8,0,1.6,0.3,2.2,0.9c0.6,0.6,0.9,1.4,0.9,2.2
		c0,0.8-0.3,1.6-0.9,2.2C270.5,109.2,269.7,109.5,268.9,109.5z"/>
	<path fill="#263238" d="M262.3,117.3H63V139h199.3V117.3z"/>
	<path opacity="0.1" fill="#FFFFFF" enable-background="new    " d="M262.3,117.3H63V139h199.3V117.3z"/>
	<path fill="#263238" d="M259.4,247.2h6l-0.2-137.7h-8.3L259.4,247.2z"/>
	<path opacity="0.1" fill="#FFFFFF" enable-background="new    " d="M259.4,247.2h6l-0.2-137.7h-8.3L259.4,247.2z"/>
	<path fill="#263238" d="M204.5,247.2h-6L212,109.5h8.3L204.5,247.2z"/>
	<path opacity="0.2" fill="#FFFFFF" enable-background="new    " d="M204.5,247.2h-6L212,109.5h8.3L204.5,247.2z"/>
	<path fill="#263238" d="M60.9,247.2h6l-0.2-137.7h-8.3L60.9,247.2z"/>
	<path opacity="0.1" fill="#FFFFFF" enable-background="new    " d="M60.9,247.2h6l-0.2-137.7h-8.3L60.9,247.2z"/>
	<path fill="#263238" d="M6,247.2H0l13.5-137.7h8.3L6,247.2z"/>
	<path opacity="0.2" fill="#FFFFFF" enable-background="new    " d="M6,247.2H0l13.5-137.7h8.3L6,247.2z"/>
	<path fill="#263238" d="M173.8,103.3h-13.8l-5.5-26.9h13.8L173.8,103.3z"/>
	<path fill="#263238" d="M192.1,97.7h-59.7c-0.5,0-0.9-0.1-1.4-0.3c-0.4-0.2-0.8-0.5-1.1-0.8c-0.3-0.3-0.6-0.7-0.7-1.2
		c-0.2-0.4-0.2-0.9-0.2-1.4l2.3-37.8c0.1-1,0.5-1.9,1.2-2.5c0.7-0.7,1.6-1,2.6-1.1h59.7c0.5,0,0.9,0.1,1.3,0.3
		c0.4,0.2,0.8,0.5,1.1,0.8c0.3,0.3,0.6,0.7,0.7,1.2c0.2,0.4,0.2,0.9,0.2,1.4l-2.3,37.8c-0.1,1-0.5,1.9-1.2,2.5
		C194,97.3,193.1,97.7,192.1,97.7z"/>
	<path fill="#F99F8B" d="M191.1,97.7h-59.7c-0.5,0-0.9-0.1-1.4-0.3c-0.4-0.2-0.8-0.5-1.1-0.8c-0.3-0.3-0.6-0.7-0.7-1.2
		c-0.2-0.4-0.2-0.9-0.2-1.4l2.3-37.8c0.1-1,0.5-1.9,1.2-2.5c0.7-0.7,1.6-1,2.6-1.1h59.7c0.5,0,0.9,0.1,1.3,0.3
		c0.4,0.2,0.8,0.5,1.1,0.8c0.3,0.3,0.6,0.7,0.7,1.2c0.2,0.4,0.2,0.9,0.2,1.4L195,94.1c-0.1,1-0.5,1.9-1.2,2.5
		C193.1,97.3,192.1,97.7,191.1,97.7z"/>
	<path fill="#FFFFFF" fill-opacity="0.6" d="M131.5,95.9c-0.2,0-0.4,0-0.6-0.1c-0.2-0.1-0.4-0.2-0.5-0.3c-0.1-0.2-0.2-0.3-0.3-0.5
		c-0.1-0.2-0.1-0.4-0.1-0.6l2.3-37.8c0-0.5,0.3-1,0.6-1.3c0.4-0.3,0.8-0.5,1.3-0.6h59.7c0.2,0,0.4,0,0.6,0.1
		c0.2,0.1,0.4,0.2,0.5,0.4c0.1,0.2,0.3,0.3,0.3,0.5c0.1,0.2,0.1,0.4,0.1,0.6L193.1,94c0,0.5-0.3,1-0.6,1.3c-0.4,0.3-0.8,0.5-1.3,0.6
		H131.5z"/>
	<path fill="#263238" d="M64.9,20.5c0.1,0.7,0.5,1.3,1,1.2c0.5,0,0.8-0.7,0.7-1.4c-0.1-0.7-0.5-1.3-1-1.2
		C65.1,19.2,64.8,19.8,64.9,20.5z"/>
	<path fill="#A02724" d="M65.7,21.6c0.8,1.9,1.9,3.6,3.2,5.2c-1,1-2.9,0.6-2.9,0.6L65.7,21.6z"/>
	<path fill="#263238" d="M62.5,17.8c-0.1,0-0.1,0-0.2,0c-0.1,0-0.2-0.1-0.2-0.2c0-0.1,0-0.2,0-0.3c0.2-0.6,0.6-1.2,1.1-1.6
		c0.5-0.4,1.1-0.7,1.8-0.9c0.1,0,0.1,0,0.2,0c0.1,0,0.1,0,0.2,0.1c0,0,0.1,0.1,0.1,0.1c0,0,0,0.1,0.1,0.2c0,0.1,0,0.2-0.1,0.3
		c-0.1,0.1-0.2,0.2-0.3,0.2c-0.5,0.1-1,0.4-1.4,0.7c-0.4,0.3-0.7,0.8-0.9,1.3c0,0.1-0.1,0.1-0.1,0.2C62.6,17.8,62.6,17.8,62.5,17.8z
		"/>
	<path fill="#B55B52" d="M43.7,31.8l5.6,4.3L57,42c-0.4,0.9-0.7,1.8-0.7,2.8c-0.3,2.1-0.5,3.7,4.2,5.1c0.5,0.1,1,0.4,1.3,0.8
		c0.4,0.4,0.6,0.8,0.7,1.4c0.2,1.3-0.6,2.8-5,3.6c-4.3,0.6-8.6-0.1-12.5-2.1c-1.9-0.9-1.9-2.1-1.1-4C46.3,44.1,45.2,37.2,43.7,31.8z
		"/>
	<path fill="#3B5CAA" d="M37.3,51.1c1.1-2.1,2-4.2,2.7-6.5c0,0,14.2-0.8,18.9,0.6c4.7,1.4,7.6,7.5,7.6,7.5L37.3,51.1z"/>
	<path fill="#B55B52" d="M43.2,61.7c-0.3,1-0.7,2.3-1.1,3.5l-1.1,3.6c-0.7,2.4-1.3,4.9-1.8,7.3c-0.5,2.4-0.9,4.8-1.2,7.2
		c-0.3,2.2-0.4,4.5-0.2,6.7c0.1,0.9,0.2,1.9,0.4,2.8c0.1,0.2,0.1,0.4,0.2,0.6l0.2,0.5c0-0.1-0.1-0.2-0.1-0.3
		c-0.1-0.1-0.2-0.3-0.3-0.4c-0.1-0.1-0.3-0.3-0.4-0.4c-0.2-0.1-0.2-0.1-0.2-0.1c0.3,0.2,0.6,0.4,0.9,0.5c0.4,0.2,0.9,0.4,1.4,0.6
		c1.1,0.4,2.2,0.7,3.4,1c4.8,1.2,10.1,2.2,15.2,3.3l-0.2,6.5c-2.7,0.4-5.5,0.6-8.3,0.7c-2.8,0.1-5.6,0.1-8.4-0.1
		c-1.5-0.1-3-0.3-4.4-0.5c-0.8-0.1-1.6-0.3-2.4-0.5c-1-0.3-1.9-0.6-2.8-1c-0.7-0.3-1.3-0.7-1.9-1.2c-0.4-0.3-0.8-0.7-1.1-1.1
		c-0.2-0.3-0.4-0.5-0.6-0.8c-0.1-0.2-0.2-0.3-0.3-0.5l-0.1-0.2L27.5,98c-0.2-0.4-0.4-0.9-0.5-1.3c-0.6-1.6-1-3.3-1.3-5
		c-0.9-6.5-0.2-12.3,0.8-17.9c0.5-2.8,1.1-5.6,1.9-8.3c0.4-1.4,0.8-2.7,1.2-4c0.4-1.3,0.9-2.6,1.4-4.1L43.2,61.7z"/>
	<path fill="#3B5CAA" d="M34.6,50c8.8-2.3,14.1,4.9,11.1,16.8c-3,11.9-4,12.4-4,12.4l-18.2-3C25.7,64.5,25.5,52.4,34.6,50z"/>
	<path fill="#B55B52" d="M63.1,95.5l-1.4-0.1c-3.9,0-4.6,1.1-7,3.3l-0.9,4.9c6.3,3.2,9.7-0.3,9.7-0.3h5.8l-2.1-4.7
		c-0.4-0.8-0.9-1.6-1.7-2.1C64.9,96,64,95.6,63.1,95.5z"/>
	<path fill="#B55B52" d="M41.3,22.5c1.6,8.5,2.1,13.6,7,17.4c7.3,5.7,17.4,0.3,18.4-8.6c0.9-8-1.9-20.6-10.7-22.8
		c-2-0.5-4-0.5-6,0.1c-2,0.5-3.7,1.5-5.2,2.9c-1.5,1.4-2.6,3.1-3.2,5.1C41,18.5,40.9,20.5,41.3,22.5z"/>
	<path fill="#263238" d="M58.2,25.5c6.1-0.5,4.3-6.9,2.4-8.2c2.8-1.1,4.8-5.6,2.1-8.7c1.6-4.2-3-9.2-11.1-8.5
		c-5.9,0.5-6.5,3.7-6.5,3.7S38,3,35.1,8.8c-2.5,5,0.5,7.7,0.5,7.7s-5.3,1.5-3.8,8.4c1.6,7.4,7.3,5.7,7.3,5.7s-1.3,6.8,6.4,6.9
		c6.7,0.1,6.7-4.9,6.7-4.9S60.9,31.8,58.2,25.5z"/>
	<path fill="#B55B52" d="M53.6,26c0.7,1.8,2,3.3,3.7,4.2c2.2,1.1,3.9-1.2,3.5-3.7c-0.4-2.2-2.3-5-4.6-5.1C54,21.3,52.8,23.7,53.6,26
		z"/>
	<path fill="#B55B52" d="M144.3,236.5l8.3-3.4l-5.9-19.9l-8.3,3.4L144.3,236.5z"/>
	<path opacity="0.2" enable-background="new    " d="M141.2,226.2l8.4-3.1l-2.9-10l-8.3,3.4L141.2,226.2z"/>
	<path fill="#263238" d="M151.8,229.8l-9.5,3.3c-0.1,0-0.2,0.1-0.2,0.1c-0.1,0.1-0.1,0.1-0.2,0.2s-0.1,0.2-0.1,0.2
		c0,0.1,0,0.2,0,0.2l2.1,7.7c0.1,0.4,0.4,0.7,0.8,0.9c0.4,0.2,0.8,0.2,1.2,0.1c3.3-1.2,4.6-1.9,8.7-3.6c4-1.7,7.9-3.5,11.7-5.6
		c3.2-1.9,1.3-5.1-0.3-4.5c-3.7,1.2-9.6,2-12.7,1C153,229.6,152.4,229.6,151.8,229.8z"/>
	<path fill="#263238" d="M77.5,121.4c0,0,62.8,5.6,64.4,23.7c3.3,36.7,8.3,72.2,8.3,72.2l-12.8,4.7c0,0-15.6-40.4-15.4-69.1
		c-18.1-5.1-65.7,2.4-73.5-11.6c-6.9-12.3-0.8-21.2-0.8-21.2L77.5,121.4z"/>
	<path fill="#DCEBDF" d="M136.5,224.9l15.9-5.4l-0.7-7.2l-17.9,5.8L136.5,224.9z"/>
	<path fill="#407BFF" d="M155.3,230.2c-0.8,0.2-1.6,0.4-2.4,0.5c0,0-0.1,0-0.1,0c0,0-0.1,0-0.1-0.1c0,0,0-0.1,0-0.1c0,0,0-0.1,0-0.1
		c0.2-0.3,2-2.7,3.2-2.7c0.1,0,0.3,0,0.4,0.1c0.1,0.1,0.2,0.2,0.3,0.3c0.1,0.2,0.2,0.4,0.2,0.6c0,0.2,0,0.4-0.1,0.6
		C156.4,229.7,155.9,230,155.3,230.2z M153.5,230.2c1.6-0.2,2.7-0.7,3-1.2c0.1-0.1,0.1-0.3,0.1-0.4c0-0.1-0.1-0.3-0.2-0.4
		c0-0.1-0.1-0.1-0.1-0.1c-0.1,0-0.1-0.1-0.2-0.1C155.4,228,154.2,229.2,153.5,230.2L153.5,230.2z"/>
	<path fill="#407BFF" d="M153,230.7c0,0-0.1,0-0.1,0c0,0-0.1,0-0.1,0c0,0-0.1,0-0.1-0.1c0-0.1-1.1-2.5-0.5-3.6
		c0.1-0.1,0.2-0.3,0.3-0.4c0.1-0.1,0.3-0.2,0.4-0.2c0.2-0.1,0.4-0.1,0.5,0c0.2,0.1,0.3,0.2,0.4,0.3c0.5,0.9-0.1,3.1-0.8,3.8
		C153.1,230.6,153.1,230.6,153,230.7z M153,226.8c-0.1,0-0.2,0.1-0.2,0.1c-0.1,0.1-0.1,0.1-0.1,0.2c-0.3,0.7,0.1,2.1,0.4,2.9
		c0.5-0.9,0.9-2.5,0.6-3.1C153.5,226.9,153.4,226.7,153,226.8L153,226.8z"/>
	<path fill="#B55B52" d="M99.8,242.4l8.9-0.4l1.4-21l-8.9,0.4L99.8,242.4z"/>
	<path fill="#263238" d="M108.9,240.5l-10.1-0.3c-0.1,0-0.2,0-0.2,0c-0.1,0-0.2,0.1-0.2,0.1c-0.1,0.1-0.1,0.1-0.2,0.2
		c0,0.1-0.1,0.2-0.1,0.2l-0.7,7.9c0,0.2,0,0.4,0.1,0.6c0.1,0.2,0.2,0.4,0.3,0.5c0.1,0.2,0.3,0.3,0.5,0.4c0.2,0.1,0.4,0.1,0.6,0.1
		c3.5,0,5.2-0.1,9.6,0c2.7,0.1,8.1,0.5,11.8,0c3.7-0.5,3.2-4.1,1.5-4.3c-3.8-0.3-9-3-11.4-5C110,240.7,109.5,240.5,108.9,240.5z"/>
	<path fill="#407BFF" d="M112,242.2c-0.8,0-1.6-0.2-2.4-0.4c0,0-0.1,0-0.1-0.1c0,0,0-0.1-0.1-0.1c0,0,0-0.1,0-0.1c0,0,0-0.1,0.1-0.1
		c0.3-0.2,2.9-1.9,4-1.4c0.1,0.1,0.2,0.1,0.3,0.2c0.1,0.1,0.1,0.2,0.2,0.4c0.1,0.2,0.1,0.4,0,0.6c-0.1,0.2-0.2,0.4-0.3,0.5
		C113.2,242.1,112.6,242.2,112,242.2z M110.2,241.5c1.6,0.4,2.8,0.4,3.2,0c0.1-0.1,0.2-0.2,0.2-0.4c0-0.1,0-0.3,0-0.4
		c0-0.1,0-0.1-0.1-0.2c0-0.1-0.1-0.1-0.2-0.1C112.8,240.2,111.3,240.9,110.2,241.5L110.2,241.5z"/>
	<path fill="#407BFF" d="M109.7,241.8c0,0-0.1,0-0.1,0c0,0-0.1,0-0.1-0.1c0,0,0-0.1,0-0.1c0-0.1-0.1-2.7,0.8-3.5
		c0.1-0.1,0.3-0.2,0.4-0.3c0.2,0,0.3,0,0.5,0c0.2,0,0.3,0.1,0.5,0.2c0.1,0.1,0.2,0.3,0.3,0.5c0.2,1-1.2,2.8-2.1,3.3
		C109.8,241.8,109.7,241.8,109.7,241.8z M111,238.2c-0.1,0-0.2,0-0.2,0c-0.1,0-0.2,0.1-0.2,0.1c-0.6,0.5-0.7,2-0.7,2.8
		c0.8-0.6,1.7-2,1.6-2.7C111.5,238.4,111.4,238.3,111,238.2L111,238.2z"/>
	<path opacity="0.2" enable-background="new    " d="M101.2,221.5l8.9-0.4l-0.8,12l-8.9,0L101.2,221.5z"/>
	<path fill="#263238" d="M56.7,120.4c0,0,67.7,10.3,66.6,25.9c-1.9,28-11.3,82.8-11.3,82.8l-13.3,0.2c0,0-3.1-56.2,1.9-76.7
		c-16.6,0-63.6-0.6-70-9.1c-7.1-9.4,0.2-24.3,0.2-24.3L56.7,120.4z"/>
	<path fill="#DCEBDF" d="M97,230.4l16.1-0.3l0.8-8.5l-17.7,0.7L97,230.4z"/>
	<path fill="#407BFF" d="M68.6,49c-5.4-1.1-30-0.8-30-0.8c-2.5-0.1-4.8,0.8-6.7,2.4c-1.9,1.6-3,3.9-3.3,6.3
		c-0.9,7.6,4,24.5,4.1,33.1c0.2,10.6-1.8,14.9-2,29.2l46.9,2.1c0-28.7-1.3-52.5-2.4-63.9C74.7,53.6,74,50.1,68.6,49z"/>
	<path opacity="0.3" fill="#FFFFFF" enable-background="new    " d="M68.6,49c-5.4-1.1-30-0.8-30-0.8c-2.5-0.1-4.8,0.8-6.7,2.4
		c-1.9,1.6-3,3.9-3.3,6.3c-0.9,7.6,4,24.5,4.1,33.1c0.2,10.6-1.8,14.9-2,29.2l46.9,2.1c0-28.7-1.3-52.5-2.4-63.9
		C74.7,53.6,74,50.1,68.6,49z"/>
	<path fill="#B55B52" d="M75,58.1c1.5,5,2.9,10.2,4.5,15.3c1.5,5.1,3.1,10.2,4.8,14.9c0.4,1.2,0.9,2.4,1.3,3.5l0.7,1.7l0.1,0.2v0.1
		v0.1v-0.1c-0.2-0.3-0.4-0.6-0.6-0.8c-0.3-0.3-0.4-0.3-0.5-0.3c0.2,0.2,0.4,0.3,0.7,0.4c0.5,0.2,0.9,0.4,1.4,0.6
		c1.1,0.4,2.2,0.7,3.4,1c4.9,1.2,10.2,2.2,15.4,3.3l-0.2,6.5c-2.8,0.4-5.6,0.6-8.4,0.7c-2.8,0.1-5.7,0.1-8.5-0.2
		c-1.5-0.1-3-0.3-4.5-0.6c-0.8-0.1-1.6-0.3-2.5-0.6c-1-0.3-2-0.7-3-1.2c-0.8-0.4-1.4-1-2.1-1.6c-0.5-0.5-0.9-1-1.2-1.6l-0.3-0.6
		l-1.1-2c-0.6-1.3-1.3-2.6-1.9-3.9c-1.1-2.6-2.2-5.2-3.2-7.8c-1-2.6-1.9-5.2-2.7-7.8c-1.7-5.3-3.3-10.5-4.7-15.9L75,58.1z"/>
	<path fill="#3B5CAA" d="M61.7,52.9c6.4-6.5,14.6-3,18.1,8.8c3.5,11.8,2.9,12.7,2.9,12.7l-17.2,6.7C61.4,69.8,55.1,59.5,61.7,52.9z"
		/>
	<path fill="#B55B52" d="M111,95.5l-1.4-0.1c-3.9,0-4.6,1.1-7,3.3l-0.9,4.9c6.3,3.2,9.7-0.3,9.7-0.3h5.9l-2.1-4.7
		c-0.4-0.8-0.9-1.6-1.7-2.1C112.8,96,111.9,95.6,111,95.5z"/>
	<path fill="#407BFF" d="M32.7,156.1h59.9c1.3,0,2.4-1.1,2.4-2.4v-3.8c0-1.3-1.1-2.4-2.4-2.4H32.7c-1.3,0-2.4,1.1-2.4,2.4v3.8
		C30.3,155,31.4,156.1,32.7,156.1z"/>
	<path fill="#407BFF" d="M33,252h-2.7l3.1-95.9H37L33,252z"/>
	<path opacity="0.4" fill="#FFFFFF" enable-background="new    " d="M33,252h-2.7l3.1-95.9H37L33,252z"/>
	<path fill="#407BFF" d="M57.4,252H60l-3-95.9h-3.7L57.4,252z"/>
	<path opacity="0.4" fill="#FFFFFF" enable-background="new    " d="M57.4,252H60l-3-95.9h-3.7L57.4,252z"/>
	<path fill="#407BFF" d="M67.9,252h-2.7l3.1-95.9H72L67.9,252z"/>
	<path opacity="0.4" fill="#FFFFFF" enable-background="new    " d="M67.9,252h-2.7l3.1-95.9H72L67.9,252z"/>
	<path fill="#407BFF" d="M92.3,252H95l-3-95.9h-3.7L92.3,252z"/>
	<path opacity="0.4" fill="#FFFFFF" enable-background="new    " d="M92.3,252H95l-3-95.9h-3.7L92.3,252z"/>
	<g opacity="0.3">
		<path opacity="0.3" fill="#407BFF" enable-background="new    " d="M33.4,156.1H37l-0.2,4.1h-3.6L33.4,156.1z"/>
		<path opacity="0.3" fill="#407BFF" enable-background="new    " d="M57.1,160.2h-3.6l-0.2-4.1H57L57.1,160.2z"/>
		<path opacity="0.3" fill="#407BFF" enable-background="new    " d="M72,156.1l-0.2,4.1h-3.6l0.1-4.1H72z"/>
		<path opacity="0.3" fill="#407BFF" enable-background="new    " d="M92.1,160.2h-3.6l-0.2-4.1h3.7L92.1,160.2z"/>
	</g>
</g>
</svg>
