<?xml version="1.0" encoding="utf-8"?>
<!-- Generator: Adobe Illustrator 25.2.1, SVG Export Plug-In . SVG Version: 6.00 Build 0)  -->
<svg version="1.1" id="Layer_1" xmlns="http://www.w3.org/2000/svg" xmlns:xlink="http://www.w3.org/1999/xlink" x="0px" y="0px"
	 viewBox="0 0 339 195" enable-background="new 0 0 339 195" xml:space="preserve">
<g>
	<path fill="#FFC3BD" d="M155.1,135.3l10,1.7l-5.5,8.8c-1.3,0.2-6.5-2.6-8.8-6.1L155.1,135.3z"/>
	<path fill="#FFC3BD" d="M171.1,142.9l-4,4.5l-7.6-1.7l5.5-8.7L171.1,142.9z"/>
	<g>
		<path fill="#6F97F6" d="M6.2,191.4h122.1c0.4,0,0.8-0.1,1.2-0.2c0.4-0.2,0.7-0.4,1-0.7c0.3-0.3,0.5-0.7,0.7-1
			c0.2-0.4,0.2-0.8,0.2-1.2l-2.9-87.3c0-0.9-0.4-1.7-1-2.3c-0.6-0.6-1.4-0.9-2.3-1H3.1c-0.4,0-0.8,0.1-1.2,0.2
			c-0.4,0.2-0.7,0.4-1,0.7c-0.3,0.3-0.5,0.7-0.7,1.1C0.1,100,0,100.4,0,100.9l2.9,87.3c0,0.9,0.4,1.7,1,2.3
			C4.5,191,5.4,191.4,6.2,191.4z"/>
		<path fill="#6F97F6" d="M7.2,191.4h122.1c0.4,0,0.8-0.1,1.2-0.2c0.4-0.2,0.7-0.4,1-0.7c0.3-0.3,0.5-0.7,0.7-1
			c0.1-0.4,0.2-0.8,0.2-1.2l-2.9-87.3c0-0.9-0.4-1.7-1-2.3c-0.6-0.6-1.4-0.9-2.3-1H4.1c-0.4,0-0.8,0.1-1.2,0.2
			c-0.4,0.2-0.7,0.4-1,0.7c-0.3,0.3-0.5,0.7-0.7,1.1C1.1,100,1,100.4,1,100.9l2.9,87.3c0,0.9,0.4,1.7,1,2.3
			C5.5,191,6.4,191.4,7.2,191.4z"/>
		<g opacity="0.6">
			<path opacity="0.6" fill="#263238" enable-background="new    " d="M7.2,191.4h122.1c0.4,0,0.8-0.1,1.2-0.2
				c0.4-0.2,0.7-0.4,1-0.7c0.3-0.3,0.5-0.7,0.7-1c0.1-0.4,0.2-0.8,0.2-1.2l-2.9-87.3c0-0.9-0.4-1.7-1-2.3c-0.6-0.6-1.4-0.9-2.3-1
				H4.1c-0.4,0-0.8,0.1-1.2,0.2c-0.4,0.2-0.7,0.4-1,0.7c-0.3,0.3-0.5,0.7-0.7,1.1C1.1,100,1,100.4,1,100.9l2.9,87.3
				c0,0.9,0.4,1.7,1,2.3C5.5,191,6.4,191.4,7.2,191.4z"/>
		</g>
		<path fill="#6F97F6" d="M8.8,191.2h147.4c0.7,0,1.4,0.2,2,0.6c0.6,0.4,1.1,0.9,1.4,1.6c0.1,0.2,0.1,0.4,0.1,0.5
			c0,0.2-0.1,0.4-0.2,0.5c-0.1,0.2-0.2,0.3-0.4,0.4c-0.2,0.1-0.4,0.1-0.5,0.1H6.3c-0.2,0-0.4,0-0.5-0.1c-0.2-0.1-0.3-0.2-0.4-0.4
			c-0.1-0.2-0.2-0.3-0.2-0.5c0-0.2,0-0.4,0.1-0.5c0.3-0.7,0.8-1.2,1.4-1.6C7.4,191.4,8.1,191.2,8.8,191.2z"/>
		<path opacity="0.6" fill="#263238" enable-background="new    " d="M156.2,191.2H38.6c-0.7,0-1.4,0.2-2.1,0.6
			c-0.6,0.4-1.1,0.9-1.4,1.6c-0.1,0.2-0.1,0.4-0.1,0.5s0.1,0.4,0.2,0.5c0.1,0.2,0.2,0.3,0.4,0.4c0.2,0.1,0.4,0.1,0.5,0.1h122.6
			c0.2,0,0.4,0,0.5-0.1c0.2-0.1,0.3-0.2,0.4-0.4c0.1-0.2,0.2-0.3,0.2-0.5c0-0.2,0-0.4-0.1-0.5c-0.3-0.7-0.8-1.2-1.4-1.6
			C157.7,191.4,157,191.2,156.2,191.2z"/>
		<path opacity="0.3" fill="#FFFFFF" enable-background="new    " d="M85.9,193.6h30.6c0.4,0,0.7,0.1,1,0.4c0.3,0.3,0.4,0.6,0.4,1
			H84.5c0-0.4,0.1-0.7,0.4-1C85.2,193.8,85.5,193.6,85.9,193.6z"/>
		<path opacity="0.9" fill="#FFFFFF" enable-background="new    " d="M129.5,185l-2.7-81c0-0.3-0.2-0.7-0.4-0.9
			c-0.2-0.2-0.6-0.4-0.9-0.4H5.1c-0.2,0-0.3,0-0.5,0.1c-0.2,0.1-0.3,0.2-0.4,0.3c-0.1,0.1-0.2,0.3-0.3,0.4c-0.1,0.2-0.1,0.3-0.1,0.5
			l2.7,81c0,0.3,0.2,0.7,0.4,0.9c0.2,0.2,0.6,0.4,0.9,0.4h120.4c0.2,0,0.3-0.1,0.5-0.1c0.1-0.1,0.3-0.2,0.4-0.3
			c0.1-0.1,0.2-0.3,0.2-0.4C129.5,185.3,129.5,185.2,129.5,185z"/>
		<path fill="#FFFFFF" d="M30.3,186.3H13.7l19.1-83.5h16.6L30.3,186.3z"/>
		<path fill="#FFFFFF" d="M40.9,186.3h-6L54,102.8h6L40.9,186.3z"/>
		<path fill="#FFFFFF" d="M101.9,186.3h-6l19.1-83.5h6L101.9,186.3z"/>
		<path opacity="0.4" fill="#FFFFFF" enable-background="new    " d="M64.3,100.3c0,0.2,0.1,0.5,0.3,0.6c0.2,0.2,0.4,0.3,0.7,0.3
			c0.2,0,0.5-0.1,0.6-0.3c0.2-0.2,0.3-0.4,0.3-0.6c0-0.2-0.1-0.5-0.3-0.6c-0.2-0.2-0.4-0.3-0.7-0.3c-0.2,0-0.5,0.1-0.6,0.3
			C64.4,99.9,64.3,100.1,64.3,100.3z"/>
		<path fill="#FFC3BD" d="M103.2,91.4c1.6,2.6,3.3,5.3,5.1,7.9c1.7,2.6,3.5,5.3,5.3,7.8c3.5,5.1,7.3,10,11.4,14.7
			c1.9,2.2,4,4.2,6.2,6.1l0.8,0.6c0.2,0.1,0.3,0.3,0.5,0.4c0.5,0.3,1,0.6,1.5,0.8c1.2,0.6,2.5,1.1,3.8,1.5c1.4,0.5,2.8,0.9,4.3,1.2
			c1.5,0.3,3,0.7,4.5,1c3,0.6,6.2,1.2,9.3,1.8v6.3c-1.7,0.3-3.4,0.4-5.1,0.5c-1.7,0.1-3.4,0.2-5.1,0.2c-3.5,0-6.9-0.3-10.4-0.8
			c-1.9-0.3-3.7-0.8-5.5-1.4c-1-0.3-2-0.8-2.9-1.3c-0.5-0.2-1-0.6-1.5-0.9l-1.2-0.8c-2.9-2.1-5.6-4.5-8.1-7.1
			c-4.7-4.9-9-10.1-12.9-15.6c-2-2.7-3.9-5.4-5.7-8.2c-1.8-2.8-3.6-5.5-5.3-8.5L103.2,91.4z"/>
		<path fill="#6F97F6" d="M87.9,93.2c-0.9,8,18,27,18,27l12.8-10.7c-3.8-6.4-7.9-12.5-12.5-18.3C99,82.1,88.9,84.2,87.9,93.2z"/>
		<path opacity="0.3" enable-background="new    " d="M98.3,98.8c-5.1-5.4-7.5-6.8-10.4-4.7c0.4,8.4,18.1,26,18.1,26
			C107.2,111.1,102.6,105.3,98.3,98.8z"/>
		<path fill="#6F97F6" d="M117.7,105.8l1.3,3.9l-14.3,11.8l-2.8-2.9L117.7,105.8z"/>
		<path opacity="0.3" fill="#263238" enable-background="new    " d="M117.7,105.8l1.3,3.9l-14.3,11.8l-2.8-2.9L117.7,105.8z"/>
		<path fill="#6F97F6" d="M98.2,85.6c0,0,10.9,25.6,3,73.2H56c-0.6-6.9,2.6-40.9-5.2-73.6c5-1,10-1.6,15.1-1.9
			c6.4-0.4,12.8-0.4,19.2,0C89.6,83.7,93.9,84.4,98.2,85.6z"/>
		<path opacity="0.3" enable-background="new    " d="M60.9,93.2c0.9,5.4-0.3,18.3-4.9,33.2c-0.4-12.8-1.8-25.5-4.4-38v-0.1
			C54.5,88,60,88.2,60.9,93.2z"/>
		<path fill="#FFC3BD" d="M67,61.5c1.4,6.2,3,17.5-1.2,21.7c0,0,1.8,5.1,13.3,5.1c12.7,0,5.9-5.1,5.9-5.1c-7-1.6-7-6.8-5.9-11.6
			L67,61.5z"/>
		<path fill="#FFFFFF" d="M80,88.8l2.7,2.9c0.1,0.1,0.1,0.2,0.2,0.3c0,0.1,0,0.2,0,0.3l-1.4,2.8c0,0.1-0.1,0.2-0.2,0.2
			s-0.2,0.1-0.3,0.1l-2.1,0.1c-0.1,0-0.2,0-0.3-0.1c-0.1,0-0.2-0.1-0.2-0.2l-1.9-2.7c-0.1-0.1-0.1-0.2-0.1-0.4c0-0.1,0-0.3,0.1-0.4
			l2.6-3.1c0.1-0.1,0.1-0.1,0.2-0.2c0.1,0,0.2-0.1,0.2-0.1s0.2,0,0.2,0S79.9,88.8,80,88.8z"/>
		<path fill="#263238" d="M79.5,88.3c-1.3,2.1-2.1,4.5-2.2,7c0,0-14.7-5-14-12.4c1.3-0.6,2.6-1.4,3.8-2.2
			C67.1,80.7,67.6,85.4,79.5,88.3z"/>
		<path fill="#263238" d="M79.5,88.3c1.3,2,2.2,4.2,2.8,6.5c0,0,6.8-4.7,4.9-11.9l-4-0.9C83.2,82.1,84,86.8,79.5,88.3z"/>
		<path fill="#FFFFFF" d="M81.2,95.2c0.9,3,7.7,25.3,7.9,30.6c0,0,0,0.1,0,0.1c-0.6,2.9-3.5,7.9-4.6,9.9c0,0.1-0.1,0.1-0.2,0.2
			c-0.1,0-0.2,0.1-0.3,0.1c-0.1,0-0.2,0-0.2-0.1s-0.1-0.1-0.2-0.2c-0.8-1.9-2.7-6.6-4-9.3c0-0.1,0-0.1,0-0.2
			c-0.6-9.7-0.8-24.9-1.1-30.9c0-0.1,0-0.1,0-0.2c0-0.1,0.1-0.1,0.1-0.2c0,0,0.1-0.1,0.2-0.1c0.1,0,0.1,0,0.2,0h1.7
			c0.1,0,0.2,0,0.3,0.1C81.1,95,81.2,95.1,81.2,95.2z"/>
		<path opacity="0.2" enable-background="new    " d="M72,65.6l7.2,6c-0.3,1.1-0.4,2.3-0.5,3.4c-2.7-0.4-6.3-3.3-6.7-6
			C71.8,67.9,71.8,66.8,72,65.6z"/>
		<path fill="#263238" d="M84.8,43.1c1.7,1.3,4.6,6.7,0.9,8.1C82,52.6,80.6,40,84.8,43.1z"/>
		<path fill="#FFC3BD" d="M64.8,54.1c1.7,8.3,2.3,13.2,7.1,16.9c1.6,1.3,3.4,2.1,5.4,2.3c2,0.3,4,0,5.8-0.8c1.8-0.8,3.4-2.1,4.6-3.7
			c1.2-1.6,1.8-3.5,2-5.5c0.7-7.7-2.2-19.9-10.9-22.3c-1.9-0.6-3.8-0.6-5.7-0.2c-1.9,0.4-3.6,1.4-5.1,2.7c-1.4,1.3-2.5,3-3,4.8
			C64.5,50.2,64.4,52.2,64.8,54.1z"/>
		<path fill="#263238" d="M65.9,60.3l3.5-2.3l0.2-2c0.3-2.9-0.2-5.9-1.6-8.5c0,0,16.8,0.6,18.9-4.6c2.1-5.3-3.8-9.2-3.8-9.2
			s-5.9,3.4-10,3.7c-4,0.3-16.3-4.7-16.3,5.6C51.4,44.7,51.6,53.6,65.9,60.3"/>
		<path fill="#263238" d="M57.4,43.4c0,0-2.2-1.8-0.6-7.2C54.8,37.3,53.8,42.8,57.4,43.4z"/>
		<path fill="#FFC3BD" d="M62.4,63.7c1.4,1.6,3.3,2.7,5.4,2.9c2.8,0.3,3.6-2.3,2.4-4.7c-1.1-2.1-3.9-4.9-6.5-4.1
			C61.1,58.7,60.7,61.6,62.4,63.7z"/>
		<path fill="#263238" d="M105.1,186.3H76.2c-2.6-15.7-4.7-27.5-4.7-27.5h29.8C101.3,158.7,103,170.4,105.1,186.3z"/>
		<path fill="#263238" d="M57.1,186.3c-0.7-15.7-1.1-27.5-1.1-27.5h29.2c0,0,0.1,12,0.2,27.5H57.1z"/>
		<path fill="#263238" d="M77.8,55c0.1,0.7,0.5,1.2,1,1.1c0.4,0,0.7-0.6,0.6-1.3c-0.1-0.7-0.5-1.2-1-1.1C78,53.8,77.7,54.4,77.8,55z
			"/>
		<path fill="#263238" d="M85.5,54.2c0.1,0.7,0.5,1.2,1,1.1c0.4-0.1,0.7-0.6,0.6-1.3c-0.1-0.7-0.5-1.2-1-1.1
			C85.6,53,85.4,53.5,85.5,54.2z"/>
		<path fill="#ED847E" d="M83.1,54.8c1.1,2,2.5,3.8,4.1,5.4c-1,1.3-3.2,1-3.2,1L83.1,54.8z"/>
		<path fill="#263238" d="M80.9,63.3c0.5,0,0.9,0,1.4,0c0,0,0.1,0,0.1,0c0,0,0,0,0.1,0c0,0,0,0,0-0.1c0,0,0-0.1,0-0.1
			c0-0.1,0-0.1-0.1-0.1c0,0-0.1,0-0.2,0c-0.9,0.1-1.7,0-2.5-0.3c-0.8-0.3-1.6-0.7-2.2-1.4c0,0,0,0-0.1,0c0,0,0,0-0.1,0
			c0,0-0.1,0-0.1,0c0,0,0,0-0.1,0c0,0,0,0,0,0.1c0,0,0,0,0,0.1c0,0,0,0.1,0,0.1c0,0,0,0,0,0.1C78.2,62.5,79.5,63.2,80.9,63.3z"/>
		<path fill="#263238" d="M75,52.8c0.1,0,0.2,0,0.2,0c0.1,0,0.1-0.1,0.2-0.2c0.2-0.4,0.6-0.8,1-1.1c0.4-0.3,0.9-0.5,1.4-0.5
			c0.1,0,0.2-0.1,0.3-0.1s0.1-0.2,0.1-0.3c0-0.1,0-0.1,0-0.2c0,0-0.1-0.1-0.1-0.1c0,0-0.1-0.1-0.1-0.1c-0.1,0-0.1,0-0.2,0
			c-0.6,0.1-1.2,0.3-1.8,0.6c-0.5,0.3-1,0.8-1.3,1.4c0,0,0,0.1-0.1,0.2c0,0.1,0,0.1,0,0.2c0,0.1,0,0.1,0.1,0.1c0,0,0.1,0.1,0.1,0.1
			C74.9,52.8,75,52.8,75,52.8z"/>
		<path fill="#263238" d="M88.3,51.2c0.1,0,0.2,0,0.3-0.1c0.1-0.1,0.1-0.2,0.2-0.3c0-0.1,0-0.2-0.1-0.3c-0.3-0.5-0.8-1-1.4-1.3
			c-0.6-0.3-1.2-0.5-1.8-0.6c-0.1,0-0.2,0-0.3,0.1c-0.1,0.1-0.1,0.2-0.1,0.3c0,0.1,0,0.2,0.1,0.3c0.1,0.1,0.2,0.1,0.3,0.1
			c0.5,0,1,0.2,1.4,0.5c0.4,0.3,0.8,0.6,1.1,1.1c0,0,0.1,0.1,0.1,0.1C88.2,51.2,88.3,51.2,88.3,51.2z"/>
		<path fill="#FFC3BD" d="M59.5,97.8l-2,3.5c-0.7,1.2-1.3,2.4-2,3.6c-1.3,2.4-2.6,4.8-3.7,7.3c-1.2,2.5-2.3,4.9-3.3,7.4
			c-0.5,1.2-1,2.5-1.4,3.7l-0.6,1.9l-0.5,1.8l-0.1,0.5l-0.1,0.2c0,0.1,0,0,0,0.1c0,0.1,0,0.1-0.1,0.2c0,0.4,0,0.7,0,1.1
			c0.1,1.1,0.3,2.1,0.7,3.2c0.8,2.5,1.8,4.9,2.9,7.2c2.3,4.9,5.1,9.9,7.8,14.7l-5,3.9c-2.1-2.1-4.1-4.3-5.9-6.6
			c-1.9-2.3-3.6-4.7-5.3-7.2c-1.7-2.6-3.3-5.4-4.5-8.2c-0.7-1.6-1.3-3.3-1.7-5.1c-0.2-1.1-0.3-2.1-0.3-3.2c0-0.6,0-1.3,0.1-1.9
			l0.1-0.5l0.1-0.3l0.1-0.6c0.6-3.1,1.4-6.1,2.4-9.1c1-2.9,2.1-5.7,3.3-8.5c1.2-2.8,2.5-5.4,3.9-8.1c0.7-1.3,1.4-2.6,2.2-3.9
			c0.8-1.3,1.5-2.5,2.4-3.9L59.5,97.8z"/>
		<path fill="#6F97F6" d="M50.8,85.1c-8,1.2-16.2,28.9-16.2,28.9l17.2,9.5c0,0,6.9-13.2,10.3-23C65.5,90.3,59.4,83.9,50.8,85.1z"/>
		<path fill="#6F97F6" d="M35,110.1l-0.7,4.1l17.6,9.7l2.3-3.4L35,110.1z"/>
		<path opacity="0.3" fill="#263238" enable-background="new    " d="M35,110.1l-0.7,4.1l17.6,9.7l2.3-3.4L35,110.1z"/>
		<path fill="#FFC3BD" d="M54.7,152.3l8.4-1.5l-4.3,9.8c0,0-7.7,0-7.3-4L54.7,152.3z"/>
		<path fill="#FFC3BD" d="M69.4,155.7l-4,7.9l-6.6-3l4.3-9.8L69.4,155.7z"/>
	</g>
</g>
<g>
	<path fill="#6F97F6" d="M332.8,191.4H210.7c-0.4,0-0.8-0.1-1.2-0.2c-0.4-0.2-0.7-0.4-1-0.7c-0.3-0.3-0.5-0.7-0.7-1
		c-0.2-0.4-0.2-0.8-0.2-1.2l2.9-87.3c0-0.9,0.4-1.7,1-2.3c0.6-0.6,1.4-0.9,2.3-1h122.1c0.4,0,0.8,0.1,1.2,0.2c0.4,0.2,0.7,0.4,1,0.7
		c0.3,0.3,0.5,0.7,0.7,1.1c0.2,0.4,0.2,0.8,0.2,1.2l-2.9,87.3c0,0.9-0.4,1.7-1,2.3C334.5,191,333.6,191.4,332.8,191.4z"/>
	<path opacity="0.6" fill="#263238" enable-background="new    " d="M332.8,191.4H210.7c-0.4,0-0.8-0.1-1.2-0.2
		c-0.4-0.2-0.7-0.4-1-0.7c-0.3-0.3-0.5-0.7-0.7-1c-0.2-0.4-0.2-0.8-0.2-1.2l2.9-87.3c0-0.9,0.4-1.7,1-2.3c0.6-0.6,1.4-0.9,2.3-1
		h122.1c0.4,0,0.8,0.1,1.2,0.2c0.4,0.2,0.7,0.4,1,0.7c0.3,0.3,0.5,0.7,0.7,1.1c0.2,0.4,0.2,0.8,0.2,1.2l-2.9,87.3
		c0,0.9-0.4,1.7-1,2.3C334.5,191,333.6,191.4,332.8,191.4z"/>
	<path fill="#6F97F6" d="M331.8,191.4H209.7c-0.4,0-0.8-0.1-1.2-0.2c-0.4-0.2-0.7-0.4-1-0.7c-0.3-0.3-0.5-0.7-0.7-1
		c-0.2-0.4-0.2-0.8-0.2-1.2l2.9-87.3c0-0.9,0.4-1.7,1-2.3c0.6-0.6,1.4-0.9,2.3-1h122.1c0.4,0,0.8,0.1,1.2,0.2c0.4,0.2,0.7,0.4,1,0.7
		c0.3,0.3,0.5,0.7,0.7,1.1c0.1,0.4,0.2,0.8,0.2,1.2l-2.9,87.3c0,0.9-0.4,1.7-1,2.3C333.5,191,332.6,191.4,331.8,191.4z"/>
	<path fill="#6F97F6" d="M330.2,191.2H182.8c-0.7,0-1.4,0.2-2,0.6c-0.6,0.4-1.1,0.9-1.4,1.6c-0.1,0.2-0.1,0.4-0.1,0.5
		c0,0.2,0.1,0.4,0.2,0.5c0.1,0.2,0.2,0.3,0.4,0.4c0.2,0.1,0.4,0.1,0.5,0.1h152.4c0.2,0,0.4,0,0.5-0.1s0.3-0.2,0.4-0.4
		c0.1-0.2,0.2-0.3,0.2-0.5s0-0.4-0.1-0.5c-0.3-0.7-0.8-1.2-1.4-1.6C331.6,191.4,330.9,191.2,330.2,191.2z"/>
	<path opacity="0.6" fill="#263238" enable-background="new    " d="M330.2,191.2h-22.6c-0.7,0-1.4,0.2-2.1,0.6
		c-0.6,0.4-1.1,0.9-1.4,1.6c-0.1,0.2-0.1,0.4-0.1,0.5s0.1,0.4,0.2,0.5c0.1,0.2,0.2,0.3,0.4,0.4c0.2,0.1,0.4,0.1,0.5,0.1h27.5
		c0.2,0,0.4,0,0.5-0.1c0.2-0.1,0.3-0.2,0.4-0.4c0.1-0.2,0.2-0.3,0.2-0.5c0-0.2,0-0.4-0.1-0.5c-0.3-0.6-0.8-1.2-1.4-1.6
		C331.6,191.4,330.9,191.2,330.2,191.2z"/>
	<path opacity="0.2" enable-background="new    " d="M253.1,193.6h-30.6c-0.4,0-0.7,0.1-1,0.4c-0.3,0.3-0.4,0.6-0.4,1h33.4
		c0-0.4-0.1-0.7-0.4-1C253.8,193.8,253.5,193.6,253.1,193.6z"/>
	<path opacity="0.9" fill="#FFFFFF" enable-background="new    " d="M209.5,185l2.7-81c0-0.3,0.2-0.7,0.4-0.9
		c0.2-0.2,0.6-0.4,0.9-0.4H334c0.2,0,0.3,0,0.5,0.1c0.1,0.1,0.3,0.2,0.4,0.3c0.1,0.1,0.2,0.3,0.3,0.4c0.1,0.2,0.1,0.3,0.1,0.5
		l-2.7,81c0,0.3-0.2,0.7-0.4,0.9c-0.2,0.2-0.6,0.4-0.9,0.4H210.7c-0.2,0-0.3,0-0.5-0.1c-0.2-0.1-0.3-0.2-0.4-0.3
		c-0.1-0.1-0.2-0.3-0.3-0.4C209.5,185.3,209.5,185.2,209.5,185z"/>
	<path fill="#FFFFFF" d="M295.1,186.3h-16.6l19.1-83.5h16.6L295.1,186.3z"/>
	<path fill="#FFFFFF" d="M223,186.3h-6l19.1-83.5h6L223,186.3z"/>
	<path fill="#FFFFFF" d="M308.7,186.3h-6l19.1-83.5h6L308.7,186.3z"/>
	<path opacity="0.4" enable-background="new    " d="M274.7,100.3c0,0.2-0.1,0.5-0.3,0.6s-0.4,0.3-0.7,0.3c-0.2,0-0.5-0.1-0.6-0.3
		c-0.2-0.2-0.3-0.4-0.3-0.6c0-0.2,0.1-0.5,0.3-0.6c0.2-0.2,0.4-0.3,0.7-0.3c0.2,0,0.5,0.1,0.6,0.3
		C274.6,99.9,274.7,100.1,274.7,100.3z"/>
	<path fill="#B55B52" d="M265.9,61.5c-1.4,6.2-3,17.5,1.2,21.7c0,0-1.8,5.1-13.3,5.1c-12.7,0-5.9-5.1-5.9-5.1c7-1.6,7-6.8,5.9-11.6
		L265.9,61.5z"/>
	<path fill="#B65B52" d="M284.3,91c0.9,1.4,1.6,2.6,2.4,3.9c0.7,1.3,1.5,2.6,2.2,3.9c1.4,2.6,2.7,5.3,3.9,8.1
		c1.2,2.8,2.3,5.6,3.3,8.5c1,3,1.8,6,2.4,9.1l0.1,0.6l0.1,0.3l0.1,0.5c0.1,0.6,0.1,1.3,0.1,1.9c0,1.1-0.1,2.2-0.3,3.2
		c-0.4,1.7-0.9,3.5-1.7,5.1c-1.3,2.9-2.8,5.6-4.5,8.2c-1.7,2.5-3.5,4.9-5.3,7.2c-1.9,2.3-3.9,4.5-5.9,6.6l-5-3.9
		c2.7-4.8,5.5-9.8,7.8-14.7c1.1-2.3,2.1-4.8,2.9-7.2c0.3-1,0.6-2.1,0.7-3.2c0-0.4,0-0.7,0-1.1c0-0.1,0-0.2-0.1-0.2v-0.1l-0.1-0.2
		l-0.1-0.5l-0.5-1.8l-0.6-1.9c-0.4-1.2-0.9-2.5-1.4-3.7c-1-2.5-2.1-4.9-3.3-7.4c-1.2-2.5-2.5-4.9-3.7-7.3c-0.6-1.2-1.3-2.4-2-3.6
		l-2-3.5L284.3,91z"/>
	<path fill="#263238" d="M282.1,85.1c8,1.2,16.2,28.9,16.2,28.9l-17.1,9.5c0,0-7-13.2-10.3-23C267.4,90.3,273.6,83.9,282.1,85.1z"/>
	<path opacity="0.3" enable-background="new    " d="M277,100.3l-1.3,11.9c1.3,2.9,2.6,5.4,3.6,7.5
		C279.6,114.9,279.6,107.2,277,100.3z"/>
	<path fill="#6F97F6" d="M298,110.1l0.7,4.1l-17.6,9.7l-2.3-3.4L298,110.1z"/>
	<path opacity="0.3" fill="#263238" enable-background="new    " d="M298,110.1l0.7,4.1l-17.6,9.7l-2.3-3.4L298,110.1z"/>
	<path fill="#B55B52" d="M278.3,152.3l-8.4-1.5l4.3,9.8c0,0,7.7,0,7.3-4L278.3,152.3z"/>
	<path fill="#B55B52" d="M263.6,155.8l4,7.9l6.7-3l-4.3-9.8L263.6,155.8z"/>
	<path fill="#263238" d="M234.7,85.6c0,0-10.9,25.6-3,73.2h45.3c0.6-6.9-2.6-40.9,5.2-73.6c-5-1-10-1.6-15.1-1.9
		c-6.4-0.4-12.8-0.4-19.2,0C243.4,83.7,239,84.4,234.7,85.6z"/>
	<path opacity="0.3" enable-background="new    " d="M229.9,107.4c-0.7,5.7-1,11.5-1,17.3c6.2-4,8.3-13.2,9.2-19.9L229.9,107.4z"/>
	<path fill="#B65B52" d="M240.8,98c-1.7,3-3.5,5.7-5.3,8.5c-1.8,2.8-3.7,5.5-5.7,8.2c-3.9,5.5-8.3,10.7-12.9,15.6
		c-2.5,2.6-5.2,4.9-8.1,7.1l-1.2,0.8c-0.5,0.3-1,0.6-1.5,0.9c-0.9,0.5-1.9,0.9-2.9,1.3c-1.8,0.6-3.6,1.1-5.5,1.4
		c-3.4,0.6-6.9,0.8-10.4,0.8c-1.7,0-3.4,0-5.1-0.2c-1.7-0.2-3.3-0.2-5.1-0.5v-6.3c3.1-0.5,6.2-1.1,9.2-1.8c1.5-0.3,3-0.7,4.5-1
		c1.5-0.4,2.9-0.8,4.3-1.2c1.3-0.4,2.6-0.9,3.8-1.5c0.5-0.3,1-0.5,1.5-0.8c0.2-0.1,0.4-0.3,0.5-0.4l0.8-0.6c2.2-1.9,4.3-3.9,6.2-6.1
		c4.1-4.7,7.9-9.6,11.4-14.7c1.8-2.6,3.6-5.2,5.3-7.8c1.8-2.6,3.4-5.4,5.1-7.9L240.8,98z"/>
	<path fill="#263238" d="M245,93.2c0.9,8-16.8,27.2-16.8,27.2l-14-11c3.8-6.4,7.9-12.5,12.4-18.3C233.9,82.1,244,84.2,245,93.2z"/>
	<path fill="#6F97F6" d="M215.2,105.8l-1.4,3.9l14.3,11.8l2.8-2.9L215.2,105.8z"/>
	<path opacity="0.3" fill="#263238" enable-background="new    " d="M215.2,105.8l-1.4,3.9l14.3,11.8l2.8-2.9L215.2,105.8z"/>
	<path fill="#B55B52" d="M177.3,135.4l-10.1,0.1l4.1,9.5c1.2,0.4,6.8-1.6,9.6-4.7L177.3,135.4z"/>
	<path fill="#B55B52" d="M160.2,140.5l5.5,6.9l5.5-2.4l-4.1-9.4L160.2,140.5z"/>
	<path fill="#263238" d="M245,54.2c-0.1,0.7-0.5,1.2-1,1.1c-0.4-0.1-0.7-0.6-0.6-1.3c0.1-0.7,0.5-1.2,1-1.1
		C244.8,53,245.1,53.5,245,54.2z"/>
	<path fill="#A02724" d="M245.2,54.8c-1.1,2-2.5,3.8-4.1,5.4c1,1.3,3.2,1,3.2,1L245.2,54.8z"/>
	<path fill="#263238" d="M244,59.8c-1.5,0-2.9-2.2-3.1-5c-0.2-1.6,0.1-3.1,1-4.4c0.2-0.2,0.3-0.3,0.6-0.4c0.2-0.1,0.5-0.2,0.7-0.2
		c1.5,0,2.9,2.2,3.1,5c0.2,1.6-0.1,3.1-1,4.4c-0.2,0.2-0.4,0.3-0.6,0.4S244.3,59.8,244,59.8L244,59.8z M243.2,50.3
		c-0.2,0-0.3,0.1-0.5,0.1c-0.2,0.1-0.3,0.2-0.4,0.3c-0.8,1.2-1.1,2.7-0.9,4.1c0.2,2.5,1.4,4.5,2.7,4.5c0.2,0,0.3-0.1,0.5-0.1
		c0.2-0.1,0.3-0.2,0.4-0.3c0.8-1.2,1.1-2.6,0.9-4.1C245.7,52.3,244.4,50.3,243.2,50.3z"/>
	<path fill="#263238" d="M247.4,51.2c0.1,0,0.2,0,0.3-0.1c0,0,0.1-0.1,0.1-0.1c0,0,0.1-0.1,0.1-0.1c0-0.1,0-0.1,0-0.2
		c0-0.1,0-0.1-0.1-0.1c-0.3-0.5-0.8-1-1.4-1.3c-0.6-0.3-1.2-0.5-1.8-0.6c-0.1,0-0.2,0-0.3,0.1c-0.1,0.1-0.1,0.2-0.1,0.3
		c0,0.1,0,0.2,0.1,0.3c0.1,0.1,0.2,0.1,0.3,0.1c0.5,0,1,0.2,1.4,0.5c0.4,0.3,0.8,0.6,1.1,1.1c0,0,0.1,0.1,0.1,0.1
		C247.3,51.2,247.3,51.2,247.4,51.2z"/>
	<path fill="#B55B52" d="M268.1,54.1c-1.7,8.3-2.3,13.2-7.1,16.9c-1.6,1.3-3.4,2.1-5.4,2.3c-2,0.3-4,0-5.8-0.8
		c-1.8-0.8-3.4-2.1-4.6-3.7c-1.2-1.6-1.8-3.5-2-5.5c-0.7-7.7,2.2-19.9,10.9-22.3c1.9-0.6,3.8-0.6,5.7-0.2c1.9,0.4,3.6,1.4,5.1,2.7
		c1.4,1.3,2.5,3,3,4.8C268.5,50.2,268.6,52.2,268.1,54.1z"/>
	<path fill="#6F97F6" d="M279.4,186.3c0.4-9.2-0.4-18.5-2.4-27.5h-29.2c2.3,9,3.4,18.2,3.3,27.5H279.4z"/>
	<path opacity="0.3" fill="#FFFFFF" enable-background="new    " d="M279.4,186.3c0.4-9.2-0.4-18.5-2.4-27.5h-29.2
		c2.3,9,3.4,18.2,3.3,27.5H279.4z"/>
	<path fill="#263238" d="M250.2,56.6c-1.6-0.8-3.6-8.9-3.1-11.7c0.6-2.9,7-5.9,13.4-4.8c6.4,1.2,9.1,3.4,10.4,9.2
		c1.3,6-3.4,16.1-5.7,16.9c-1.4,0.5-2.8,0.7-4.3,0.5c-1.4-0.1-2.8-0.5-4.1-1.3C254.9,64.2,253.8,54.9,250.2,56.6z"/>
	<path fill="#263238" d="M248.6,47.8c-3.1,0.2-6.1-4.8-3.2-9.2c0.8-1.3,2-2.3,3.4-2.9c1.4-0.6,2.9-0.8,4.4-0.6c0,0-1.3,2.5,3,2
		c4.3-0.5,12.4,0.7,15.3,3.7c3.5,3.8,1.4,11.1-3.9,9.3C262.3,48.3,248.6,47.8,248.6,47.8z"/>
	<path fill="#263238" d="M247.7,47.9c-0.7,0-1.3-0.2-1.9-0.5c-0.6-0.3-1.1-0.7-1.5-1.2c-0.8-1-1.3-2.2-1.5-3.4s0-2.5,0.5-3.7
		c0,0,0-0.1,0-0.1c0,0,0,0,0.1-0.1c0,0,0.1,0,0.1,0c0,0,0.1,0,0.1,0c0,0,0.1,0,0.1,0c0,0,0,0,0.1,0.1s0,0.1,0,0.1c0,0,0,0.1,0,0.1
		c-0.5,1.1-0.6,2.3-0.5,3.5c0.2,1.2,0.7,2.3,1.4,3.2c0.4,0.6,1,1,1.6,1.3c0.6,0.3,1.4,0.3,2.1,0.2c0.1,0,0.1,0,0.2,0
		c0.1,0,0.1,0.1,0.1,0.1c0,0.1,0,0.1,0,0.2c0,0.1-0.1,0.1-0.1,0.1C248.2,47.9,248,47.9,247.7,47.9z"/>
	<path fill="#B55B52" d="M255.4,55.5c0.1,2.1-0.6,4.2-1.9,5.9c-1.8,2.1-4.2,0.9-5-1.7c-0.7-2.3-0.5-6.2,1.9-7.4
		C252.8,51.1,255.2,52.9,255.4,55.5z"/>
	<path fill="#6F97F6" d="M227.9,186.3h32.5c1.6-9.1,2-18.3,1.2-27.5h-29.8C231.7,158.7,230,170.4,227.9,186.3z"/>
	<path opacity="0.3" fill="#FFFFFF" enable-background="new    " d="M227.9,186.3h32.5c1.6-9.1,2-18.3,1.2-27.5h-29.8
		C231.7,158.7,230,170.4,227.9,186.3z"/>
</g>
</svg>
