<?xml version="1.0" encoding="utf-8"?>
<!-- Generator: Adobe Illustrator 25.2.1, SVG Export Plug-In . SVG Version: 6.00 Build 0)  -->
<svg version="1.1" id="Layer_1" xmlns="http://www.w3.org/2000/svg" xmlns:xlink="http://www.w3.org/1999/xlink" x="0px" y="0px"
	 viewBox="0 0 42 42" enable-background="new 0 0 42 42" xml:space="preserve">
<path id="hp" fill="#FAD2CA" d="M42,21C42,9.4,32.6,0,21,0c-0.3,0-0.6,0-0.9,0l-4.3,11.8h3.7c2.2,0,3.4,1.7,2.7,3.8l-5.3,14.6
	l-4.4,0l5.7-15.6h-3.3L9.1,30.2H4.6l6.7-18.4h0l4-11.1C6.5,3.2,0,11.4,0,21c0,9.9,6.9,18.2,16.1,20.4L20,30.7h0l6.9-18.9h8.2
	c2.2,0,3.4,1.7,2.7,3.8l-4.7,12.8c-0.4,1-1.5,1.8-2.5,1.8h-5.9L20.4,42c0.2,0,0.4,0,0.6,0C32.6,42,42,32.6,42,21z M33.7,14.6h-3.3
	l-4.7,12.8H29L33.7,14.6z"/>
</svg>
