<?xml version="1.0" encoding="utf-8"?>
<!-- Generator: Adobe Illustrator 25.2.1, SVG Export Plug-In . SVG Version: 6.00 Build 0)  -->
<svg version="1.1" id="Layer_1" xmlns="http://www.w3.org/2000/svg" xmlns:xlink="http://www.w3.org/1999/xlink" x="0px" y="0px"
	 viewBox="0 0 38 36" enable-background="new 0 0 38 36" xml:space="preserve">
<path fill-rule="evenodd" clip-rule="evenodd" fill="#F5F9FD" d="M34.3,17.4c-0.7,0.2-1.4,0.3-2,0.5c-1.4,0.4-2.7,0.9-3.8,1.9
	c-1.7,1.5-2.3,3.8-2.8,5.9c-0.3,1.4-0.5,2.8-0.7,4.2c-0.4,2.7-0.9,3.9-0.9,3.9s-0.5-1.1-0.9-3.9c-0.2-1.4-0.4-2.8-0.7-4.2
	c-0.5-2.2-1.1-4.4-2.8-5.9c-1.1-1-2.4-1.5-3.7-1.9c-0.7-0.2-1.4-0.4-2-0.5c-0.6-0.2-3-0.5-3.7-0.5c0.7,0,3-0.3,3.7-0.5
	c0.7-0.2,1.4-0.3,2-0.5c1.4-0.4,2.7-0.9,3.7-1.9c1.7-1.5,2.3-3.8,2.8-5.9c0.3-1.4,0.5-2.8,0.7-4.2C23.7,1.1,24.2,0,24.2,0
	s0.5,1.1,0.9,3.9c0.2,1.4,0.4,2.8,0.7,4.2c0.5,2.2,1.1,4.4,2.8,5.9c1.1,1,2.4,1.5,3.8,1.9c0.7,0.2,1.4,0.4,2,0.5
	c0.6,0.2,3,0.5,3.7,0.5C37.3,16.9,35,17.2,34.3,17.4z M16.6,28.5c-0.3,0.1-0.6,0.2-0.9,0.2c-0.6,0.2-1.2,0.4-1.7,0.9
	c-0.8,0.7-1.1,1.7-1.3,2.7c-0.1,0.6-0.2,1.3-0.3,1.9c-0.2,1.2-0.4,1.8-0.4,1.8s-0.2-0.5-0.4-1.8c-0.1-0.6-0.2-1.3-0.3-1.9
	c-0.2-1-0.5-2-1.3-2.7c-0.5-0.4-1.1-0.7-1.7-0.9c-0.3-0.1-0.6-0.2-0.9-0.2c-0.6-0.1-1.1-0.2-1.7-0.2c0.6,0,1.1-0.1,1.7-0.2
	c0.3-0.1,0.6-0.2,0.9-0.2c0.6-0.2,1.2-0.4,1.7-0.9c0.8-0.7,1.1-1.7,1.3-2.7c0.1-0.6,0.2-1.3,0.3-1.9c0.2-1.3,0.4-1.8,0.4-1.8
	s0.2,0.5,0.4,1.8c0.1,0.6,0.2,1.3,0.3,1.9c0.2,1,0.5,2,1.3,2.7c0.5,0.4,1.1,0.7,1.7,0.9c0.3,0.1,0.6,0.2,0.9,0.2
	c0.6,0.1,1.1,0.2,1.7,0.2C17.7,28.3,17.1,28.4,16.6,28.5z M11,8.4c-0.3,0.1-0.6,0.2-0.9,0.2C9.5,8.8,8.9,9.1,8.4,9.5
	c-0.8,0.7-1.1,1.7-1.3,2.7c-0.1,0.6-0.2,1.3-0.3,1.9c-0.2,1.2-0.4,1.8-0.4,1.8S6.1,15.4,6,14.1c-0.1-0.6-0.2-1.3-0.3-1.9
	c-0.2-1-0.5-2-1.3-2.7C3.9,9.1,3.3,8.8,2.6,8.6C2.3,8.5,2,8.5,1.7,8.4C1.1,8.3,0.6,8.2,0,8.2c0.6,0,1.1-0.1,1.7-0.2
	C2,7.9,2.3,7.8,2.6,7.7c0.6-0.2,1.2-0.4,1.7-0.9c0.8-0.7,1.1-1.7,1.3-2.7C5.8,3.5,5.9,2.9,6,2.2c0.2-1.3,0.4-1.8,0.4-1.8
	s0.2,0.5,0.4,1.8C6.9,2.9,7,3.5,7.1,4.1c0.2,1,0.5,2,1.3,2.7c0.5,0.4,1.1,0.7,1.7,0.9C10.4,7.8,10.7,7.9,11,8
	c0.6,0.1,1.1,0.2,1.7,0.2C12.2,8.2,11.6,8.3,11,8.4L11,8.4z"/>
</svg>
