<?xml version="1.0" encoding="utf-8"?>
<!-- Generator: Adobe Illustrator 25.2.1, SVG Export Plug-In . SVG Version: 6.00 Build 0)  -->
<svg version="1.1" id="Layer_1" xmlns="http://www.w3.org/2000/svg" xmlns:xlink="http://www.w3.org/1999/xlink" x="0px" y="0px"
	 viewBox="0 0 114 18" enable-background="new 0 0 114 18" xml:space="preserve">
<path id="samsung" fill="#FAD2CA" d="M94.4,13.7L94.4,13.7L90.5,0.5h-6v16.6h4L88.3,3.5h0.1l4,13.7h5.8V0.5h-4L94.4,13.7z M17.4,0.5
	l-3,16.8h4.4l2.2-15.3h0.1l2.2,15.3h4.4l-3-16.8H17.4z M42.1,0.5l-2,12.9H40L38,0.5h-6.6L31,17.3H35l0.1-15.1h0.1l2.7,15.1h4.1
	l2.7-15.1l0.1,0L45,17.3h4.1L48.7,0.5H42.1z M4.3,4.9C4.3,4.5,4.3,4.2,4.3,4c0.1-0.5,0.5-1.1,1.5-1.1c1,0,1.5,0.6,1.5,1.5v1h4.1V4.2
	C11.4,0.6,8.2,0,5.9,0C3,0,0.6,1,0.2,3.7C0.1,4.5,0.1,5.1,0.2,6c0.7,3.4,6.5,4.4,7.3,6.6c0.2,0.4,0.1,0.9,0,1.2
	C7.5,14.4,7.1,15,6,15c-1,0-1.6-0.6-1.6-1.5l0-1.6H0l0,1.3C0,16.9,2.9,18,5.9,18c3,0,5.4-1,5.8-3.8c0.2-1.5,0.1-2.4,0-2.8
	C11,7.9,4.8,6.8,4.3,4.9z M57.3,4.9c-0.1-0.3-0.1-0.7,0-0.9c0.1-0.5,0.5-1.1,1.5-1.1c0.9,0,1.5,0.6,1.5,1.5v1h4V4.3
	c0-3.6-3.2-4.2-5.4-4.2c-2.9,0-5.2,1-5.6,3.7c-0.1,0.7-0.1,1.4,0,2.2c0.7,3.4,6.4,4.4,7.3,6.5c0.2,0.4,0.1,0.9,0,1.2
	c-0.1,0.6-0.5,1.1-1.6,1.1c-1,0-1.6-0.6-1.6-1.5l0-1.6H53v1.3c0,3.7,2.8,4.8,5.9,4.8c2.9,0,5.3-1,5.7-3.8c0.2-1.4,0.1-2.4,0-2.7
	C63.9,7.9,57.8,6.9,57.3,4.9z M75.8,13c0,0.2,0,0.5,0,0.6c-0.1,0.4-0.4,1.2-1.6,1.2c-1.1,0-1.5-0.8-1.6-1.2c0-0.2,0-0.4,0-0.6V0.5
	h-4.1v12.1c0,0.3,0,0.9,0,1.1c0.3,3.1,2.7,4.1,5.7,4.1c3,0,5.4-1,5.7-4.1c0-0.2,0-0.8,0-1.1V0.5h-4.1L75.8,13L75.8,13z M108.2,7.9
	v2.5h1.7v2.4c0,0.2,0,0.4,0,0.6c-0.1,0.5-0.5,1.2-1.7,1.2c-1.2,0-1.6-0.8-1.7-1.2c0-0.2,0-0.4,0-0.6V5.1c0-0.3,0-0.6,0.1-0.8
	c0.1-0.4,0.4-1.2,1.6-1.2c1.2,0,1.6,0.9,1.6,1.2c0,0.2,0.1,0.6,0.1,0.6v0.9h4.1V5.3c0,0,0-0.6,0-1.1c-0.3-3.2-2.8-4.2-5.7-4.2
	c-2.9,0-5.4,1-5.7,4.2c0,0.3-0.1,0.8-0.1,1.1l0,7.1c0,0.3,0,0.6,0.1,1.1c0.3,3.1,2.8,4.2,5.7,4.2c2.9,0,5.5-1.1,5.7-4.2
	c0-0.6,0.1-0.8,0.1-1.1V7.9H108.2z"/>
</svg>
