<?xml version="1.0" encoding="utf-8"?>
<!-- Generator: Adobe Illustrator 25.2.1, SVG Export Plug-In . SVG Version: 6.00 Build 0)  -->
<svg version="1.1" id="Layer_1" xmlns="http://www.w3.org/2000/svg" xmlns:xlink="http://www.w3.org/1999/xlink" x="0px" y="0px"
	 viewBox="0 0 109 31" enable-background="new 0 0 109 31" xml:space="preserve">
<path id="shopify" fill-rule="evenodd" clip-rule="evenodd" fill="#FAD2CA" d="M26.8,28.3c0,0-3.3-22.2-3.3-22.4
	c-0.1-0.2-0.2-0.2-0.3-0.3c-0.1,0-2.4-0.2-2.4-0.2s-1.6-1.6-1.8-1.8c-0.1-0.1-0.2-0.1-0.2-0.1l0,0c-0.2,0-0.3,0-0.4,0
	c0,0-0.4,0.1-0.9,0.3c-0.6-1.6-1.5-3-3.2-3H14C13.5,0.3,12.9,0,12.4,0C8.5,0,6.6,4.9,6,7.4C5.3,7.6,4.7,7.8,4.3,7.9
	c-0.6,0.2-0.9,0.3-1,0.3c-0.9,0.3-0.9,0.3-1,1.1C2.2,9.9,0,27.1,0,27.1l17.3,3.2l0.1,0l0,0L26.8,28.3z M13.9,4.8v0.2
	c-0.4,0.1-0.8,0.2-1.2,0.4h0c-0.6,0.2-1.2,0.4-1.8,0.6c0.6-2.2,1.7-3.3,2.6-3.7C13.7,2.7,13.9,3.6,13.9,4.8z M12.3,1
	c0.2,0,0.4,0.1,0.5,0.2c-1.3,0.6-2.6,2.1-3.2,5C9.3,6.4,8.9,6.5,8.5,6.6C8.1,6.7,7.7,6.9,7.3,7C7.9,4.7,9.5,1,12.3,1z M13,14.2
	c0,0-1-0.6-2.3-0.6c-1.8,0-1.9,1.2-1.9,1.4c0,0.6,0.6,1.1,1.4,1.6c1.2,0.9,2.7,2,2.7,4.2c0,2.9-1.8,4.8-4.3,4.8
	c-3,0-4.5-1.8-4.5-1.8l0.8-2.6c0,0,1.6,1.3,2.9,1.3c0.9,0,1.2-0.7,1.2-1.2c0-0.9-0.6-1.4-1.4-2c-0.9-0.8-2-1.6-2-3.5
	c0-2.8,2-5.6,6.1-5.6c1.5,0,2.3,0.4,2.3,0.4L13,14.2z M14.9,4.6V4.3c0-1-0.1-1.7-0.4-2.4C15.5,2,16,3,16.4,4.2
	C16,4.3,15.4,4.4,14.9,4.6z M36.3,15.7c0,0.6,0.5,1,1.4,1.5c1.4,0.8,2.6,1.9,2.7,3.5c0,2.9-2.4,4.6-5.7,4.6c-2.3,0-3.6-0.9-3.6-0.9
	l0.9-2.6c0,0,1.5,0.8,3,0.8c1,0,1.6-0.6,1.6-1.3c0-0.7-0.4-1.1-1.5-1.8c-1.4-0.8-2.4-1.9-2.4-3.4c0-2.6,2.2-4.4,5.5-4.4
	c2.3,0,3.1,0.6,3.1,0.6L40.3,15c0,0-1.1-0.5-2.3-0.5C37,14.5,36.3,15,36.3,15.7z M47,13.7c1-1.2,2.3-2,3.9-2c1.9,0,3,1.2,3,3.4
	c0,0.7-0.1,1.6-0.3,2.4l-1.4,7.6h-3.7l1.4-7.4c0.1-0.5,0.2-1.1,0.2-1.6c0-0.8-0.3-1.4-1.2-1.4c-1.2,0-2.4,1.5-2.9,3.9l-1.2,6.4h-3.7
	l3.6-18.8h3.7L47,13.7L47,13.7z M62.3,11.8c-4.5,0-7.4,4-7.4,8.5c0,2.8,1.8,5.1,5.1,5.1c4.4,0,7.3-3.9,7.3-8.5
	C67.3,14.3,65.8,11.8,62.3,11.8z M60.5,22.5c-1.3,0-1.8-1.1-1.8-2.4c0-2.1,1.1-5.5,3.1-5.5c1.3,0,1.7,1.1,1.7,2.2
	C63.5,19.1,62.4,22.5,60.5,22.5z M76.7,11.8c-2.5,0-3.9,2.2-3.9,2.2h0l0.2-2h-3.3c-0.2,1.3-0.5,3.4-0.7,4.9l-2.5,13.5h3.7l1-5.5h0.1
	c0,0,0.8,0.5,2.2,0.5c4.3,0,7.2-4.4,7.2-8.9C80.6,14,79.4,11.8,76.7,11.8z M73.2,22.6c-1,0-1.5-0.6-1.5-0.6l0.6-3.4
	c0.4-2.3,1.6-3.8,2.9-3.8c1.1,0,1.5,1,1.5,2C76.7,19.2,75.3,22.6,73.2,22.6z M83.7,8.6c0-1.2,0.9-2.1,2.1-2.1c1.1,0,1.8,0.8,1.8,1.8
	c0,1.3-1,2.1-2.2,2.1h0C84.4,10.5,83.7,9.7,83.7,8.6z M84.4,25.1h-3.7L83.1,12h3.7L84.4,25.1z M93.7,12h2.6l-0.5,2.8h-2.5l-2,10.3
	h-3.7l2-10.3h-1.7l0.6-2.8H90l0.1-0.6c0.3-1.6,0.9-3.1,2.1-4.2c1-0.9,2.3-1.2,3.6-1.2c1.4,0,2,0.3,2,0.3l-0.7,2.9
	c0,0-0.5-0.2-1.2-0.2c-1.2,0-2,1.1-2.2,2.4L93.7,12z M101.8,21c1-3.2,3.3-9,3.3-9v0h3.9l-4.5,9.7c-1.6,3.3-3.2,5.7-4.8,7.3
	c-1.3,1.2-2.9,1.8-3.6,2l-1-3.1c0.6-0.2,1.4-0.6,2.1-1c0.9-0.6,1.6-1.4,2-2.2c0.1-0.2,0.1-0.3,0.1-0.6L97,12h3.9
	C100.9,12,101.7,20,101.8,21L101.8,21z"/>
</svg>
